General
      Complete name : Sunset.Blvd.1950.DVDRip.H264.AAC.Gopo.mp4
      Format : MPEG-4
      Format profile : Base Media
      Codec ID : isom
      File size : 1.01 GiB
      Duration : 1h 45mn
      Overall bit rate : 1 362 Kbps
      Encoded date : UTC 2010-01-07 19:13:04
      Tagged date : UTC 2010-01-07 19:13:04
      Writing application : Yamb 2.1.0.0 [http://yamb.unite-video.com]
   Video #1
      ID : 1
      Format : AVC
      Format/Info : Advanced Video Codec
      Format profile : High@L4.1
      Format settings, CABAC : Yes
      Format settings, ReFrames : 5 frames
      Codec ID : avc1
      Codec ID/Info : Advanced Video Coding
      Duration : 1h 45mn
      Bit rate mode : Variable
      Bit rate : 1 166 Kbps
      Maximum bit rate : 4 175 Kbps
      Width : 720 pixels
      Height : 576 pixels
      Display aspect ratio : 5:4
      Frame rate mode : Constant
      Frame rate : 25.000 fps
      Standard : PAL
      Resolution : 24 bits
      Colorimetry : 4:2:0
      Scan type : Progressive
      Bits/(Pixel*Frame) : 0.112
      Stream size : 882 MiB (86%)
      Writing library : x264 core 79 r1360 528c100
      Encoding settings : cabac=1 / ref=5 / deblock=1:0:0 / analyse=0x3:0x113 / me=umh / subme=8 / psy=1 / psy_rd=1.0:0.0 / mixed_ref=1 / me_range=16 / chroma_me=1 / trellis=2 / 8x8dct=1 / cqm=0 / deadzone=21,11 / chroma_qp_offset=-2 / threads=3 / nr=0 / decimate=1 / mbaff=0 / constrained_intra=0 / bframes=3 / b_pyramid=0 / b_adapt=2 / b_bias=0 / direct=3 / wpredb=1 / wpredp=2 / keyint=250 / keyint_min=25 / scenecut=40 / rc_lookahead=30 / rc=2pass / mbtree=1 / bitrate=1166 / ratetol=1.0 / qcomp=0.50 / qpmin=10 / qpmax=51 / qpstep=4 / cplxblur=20.0 / qblur=0.5 / vbv_maxrate=24000 / vbv_bufsize=24000 / ip_ratio=1.10 / aq=1:1.00
      Encoded date : UTC 2010-01-07 09:52:59
      Tagged date : UTC 2010-01-07 19:19:49
   Audio #2
      ID : 2
      Format : AAC
      Format/Info : Advanced Audio Codec
      Format version : Version 4
      Format profile : LC
      Format settings, SBR : No
      Codec ID : 40
      Duration : 1h 45mn
      Bit rate mode : Variable
      Bit rate : 192 Kbps
      Maximum bit rate : 225 Kbps
      Channel(s) : 2 channels
      Channel positions : L R
      Sampling rate : 48.0 KHz
      Resolution : 16 bits
      Stream size : 145 MiB (14%)
      Encoded date : UTC 2010-01-07 19:18:58
      Tagged date : UTC 2010-01-07 19:19:49
	Sample : YES
	Subtitle : English,Romanian

PLOT

he story, set in '50s Hollywood, focuses on Norma Desmond, a silent-screen goddess whose pathetic belief in her own indestructibility has turned her into a demented recluse. The crumbling Sunset Boulevard mansion where she lives with only her butler, Max who was once her director and husband has become her self-contained world. Norma dreams of a comeback to pictures and she begins a relationship with Joe Gillis, a small-time writer who becomes her lover, that will soon end with murder and total madness.
Director: Billy Wilder
CASTING 
     
      William Holden	... 	Joseph C. 'Joe' Gillis
	Gloria Swanson	... 	Norma Desmond
	Erich von Stroheim	... 	Max Von Mayerling
	Nancy Olson	... 	Betty Schaefer
	Fred Clark	... 	Sheldrake
	Lloyd Gough	... 	Morino
	Jack Webb	... 	Artie Green
	Franklyn Farnum	... 	Undertaker - Chimp's Funeral
	Larry J. Blake	... 	First Finance Man (as Larry Blake)
	Charles Dayton	... 	Second Finance Man
	Cecil B. DeMille	... 	Himself
	Hedda Hopper	... 	Herself
	Buster Keaton	... 	Himself - Bridge Player
	Anna Q. Nilsson	... 	Herself - Bridge Player
	H.B. Warner	... 	Himself - Bridge Player

SOURCE: Sunset.Blvd.1950.PAL.DVDR.Romanian.Retail-iNT

Notes: For best performance I suggest you to use KMPlayer(find it with google) for playback
I haven't tested the movies on a PS3 or Xbox or other devices than PC because I don't own one of them but feel free to test them if you have the oportunity.
